<?xml version="1.0" encoding="UTF-8" standalone="no"?>
<!-- Created with Inkscape (http://www.inkscape.org/) -->

<svg
   xmlns:dc="http://purl.org/dc/elements/1.1/"
   xmlns:cc="http://creativecommons.org/ns#"
   xmlns:rdf="http://www.w3.org/1999/02/22-rdf-syntax-ns#"
   xmlns:svg="http://www.w3.org/2000/svg"
   xmlns="http://www.w3.org/2000/svg"
   xmlns:xlink="http://www.w3.org/1999/xlink"
   xmlns:sodipodi="http://sodipodi.sourceforge.net/DTD/sodipodi-0.dtd"
   xmlns:inkscape="http://www.inkscape.org/namespaces/inkscape"
   width="16"
   height="16"
   id="svg2"
   version="1.1"
   inkscape:version="0.48.5 r10040"
   sodipodi:docname="engines.svg"
   inkscape:export-filename="/data/develop/workspaces/EASE/org.eclipse.ease.core/plugins/org.eclipse.ease.ui/icons/elcl16/engines.png"
   inkscape:export-xdpi="90"
   inkscape:export-ydpi="90">
  <defs
     id="defs4">
    <linearGradient
       id="linearGradient5281-7">
      <stop
         style="stop-color:#df9f3f;stop-opacity:1"
         offset="0"
         id="stop5283-0" />
      <stop
         id="stop5289-6"
         offset="0.5"
         style="stop-color:#ffbf3f;stop-opacity:1" />
      <stop
         style="stop-color:#ffff9f;stop-opacity:1"
         offset="1"
         id="stop5285-8" />
    </linearGradient>
    <linearGradient
       inkscape:collect="always"
       id="linearGradient5291">
      <stop
         style="stop-color:#543830;stop-opacity:1"
         offset="0"
         id="stop5293" />
      <stop
         style="stop-color:#543830;stop-opacity:1"
         offset="1"
         id="stop5295" />
    </linearGradient>
    <linearGradient
       y2="3.9463863"
       x2="31.543701"
       y1="11.3844"
       x1="31.543701"
       gradientTransform="matrix(0.88591929,0,0,0.89010022,-22.890193,1040.6677)"
       gradientUnits="userSpaceOnUse"
       id="linearGradient11768"
       xlink:href="#linearGradient5281-7"
       inkscape:collect="always" />
    <linearGradient
       y2="3.5787904"
       x2="35.168701"
       y1="11.4469"
       x1="35.168701"
       gradientTransform="matrix(0.88591929,0,0,0.89010022,-22.890193,1040.6677)"
       gradientUnits="userSpaceOnUse"
       id="linearGradient11770"
       xlink:href="#linearGradient5291"
       inkscape:collect="always" />
    <linearGradient
       inkscape:collect="always"
       id="linearGradient5118-5-9">
      <stop
         style="stop-color:#005597;stop-opacity:1"
         offset="0"
         id="stop5120-7-2" />
      <stop
         style="stop-color:#00467d;stop-opacity:1"
         offset="1"
         id="stop5122-6-7" />
    </linearGradient>
    <linearGradient
       id="linearGradient5192"
       inkscape:collect="always">
      <stop
         id="stop5194"
         offset="0"
         style="stop-color:#003c6e;stop-opacity:1;" />
      <stop
         id="stop5196"
         offset="1"
         style="stop-color:#004c88;stop-opacity:1" />
    </linearGradient>
    <linearGradient
       id="linearGradient5281-7-7">
      <stop
         style="stop-color:#df9f3f;stop-opacity:1"
         offset="0"
         id="stop5283-0-40" />
      <stop
         id="stop5289-6-9"
         offset="0.5"
         style="stop-color:#ffbf3f;stop-opacity:1" />
      <stop
         style="stop-color:#ffff9f;stop-opacity:1"
         offset="1"
         id="stop5285-8-4" />
    </linearGradient>
    <linearGradient
       inkscape:collect="always"
       id="linearGradient5291-2">
      <stop
         style="stop-color:#543830;stop-opacity:1"
         offset="0"
         id="stop5293-45" />
      <stop
         style="stop-color:#543830;stop-opacity:1"
         offset="1"
         id="stop5295-5" />
    </linearGradient>
    <linearGradient
       y2="3.9463863"
       x2="31.543701"
       y1="11.3844"
       x1="31.543701"
       gradientTransform="translate(-26.947303,1039.2225)"
       gradientUnits="userSpaceOnUse"
       id="linearGradient10889"
       xlink:href="#linearGradient5281-7-7"
       inkscape:collect="always" />
    <linearGradient
       y2="3.5787904"
       x2="35.168701"
       y1="11.4469"
       x1="35.168701"
       gradientTransform="translate(-26.947303,1039.2225)"
       gradientUnits="userSpaceOnUse"
       id="linearGradient10891"
       xlink:href="#linearGradient5291-2"
       inkscape:collect="always" />
    <linearGradient
       inkscape:collect="always"
       xlink:href="#linearGradient5118-5-9"
       id="linearGradient10953"
       gradientUnits="userSpaceOnUse"
       gradientTransform="matrix(-1,0,0,-1,16.035106,2089.73)"
       x1="13"
       y1="1048.3622"
       x2="13"
       y2="1051.3622" />
    <linearGradient
       inkscape:collect="always"
       xlink:href="#linearGradient5192"
       id="linearGradient10956"
       gradientUnits="userSpaceOnUse"
       gradientTransform="matrix(1,0,0,-1,-0.9648934,2089.73)"
       x1="9"
       y1="1052.3622"
       x2="9"
       y2="1049.3622" />
    <linearGradient
       id="linearGradient5192-1"
       inkscape:collect="always">
      <stop
         id="stop5194-1"
         offset="0"
         style="stop-color:#003c6e;stop-opacity:1;" />
      <stop
         id="stop5196-5"
         offset="1"
         style="stop-color:#004c88;stop-opacity:1" />
    </linearGradient>
    <linearGradient
       inkscape:collect="always"
       xlink:href="#linearGradient5118-5-9-7"
       id="linearGradient10953-2"
       gradientUnits="userSpaceOnUse"
       gradientTransform="translate(0.00385662,-0.9944)"
       x1="13"
       y1="1048.3622"
       x2="13"
       y2="1051.3622" />
    <linearGradient
       inkscape:collect="always"
       id="linearGradient5118-5-9-7">
      <stop
         style="stop-color:#005597;stop-opacity:1"
         offset="0"
         id="stop5120-7-2-6" />
      <stop
         style="stop-color:#00467d;stop-opacity:1"
         offset="1"
         id="stop5122-6-7-14" />
    </linearGradient>
    <linearGradient
       y2="1049.3622"
       x2="9"
       y1="1052.3622"
       x1="9"
       gradientTransform="matrix(-1,0,0,1,17.003856,-0.9944)"
       gradientUnits="userSpaceOnUse"
       id="linearGradient10978"
       xlink:href="#linearGradient5192-1"
       inkscape:collect="always" />
    <mask
       maskUnits="userSpaceOnUse"
       id="mask11187">
      <g
         style="fill:#ffffff;stroke:#ffffff;display:inline"
         id="g11189">
        <path
           sodipodi:nodetypes="czc"
           inkscape:connector-curvature="0"
           id="path11191"
           d="m 3.0351066,1040.3678 c 0,0 1.557292,-2.5625 4.4999994,-2.5625 2.942708,0 4.5,2.5625 4.5,2.5625"
           style="fill:#ffffff;stroke:#ffffff;stroke-width:1px;stroke-linecap:butt;stroke-linejoin:miter;stroke-opacity:1" />
        <path
           inkscape:connector-curvature="0"
           id="path11193"
           d="m 2.0351066,1041.3678 3.453125,0 -3.453125,-3.4531 z"
           style="fill:#ffffff;fill-opacity:1;stroke:#ffffff;display:inline" />
        <path
           sodipodi:nodetypes="czc"
           inkscape:connector-curvature="0"
           id="path11195"
           d="m 13.003856,1048.3678 c 0,0 -1.557292,2.5625 -4.4999994,2.5625 -2.942708,0 -4.5,-2.5625 -4.5,-2.5625"
           style="fill:#ffffff;stroke:#ffffff;stroke-width:1px;stroke-linecap:butt;stroke-linejoin:miter;stroke-opacity:1;display:inline" />
        <path
           inkscape:connector-curvature="0"
           id="path11197"
           d="m 14.003856,1047.3678 -3.453125,0 3.453125,3.4531 z"
           style="fill:#ffffff;fill-opacity:1;stroke:#ffffff;display:inline" />
      </g>
    </mask>
    <filter
       inkscape:collect="always"
       id="filter11967"
       x="-0.16746384"
       width="1.3349277"
       y="-0.19456491"
       height="1.3891298">
      <feGaussianBlur
         inkscape:collect="always"
         stdDeviation="1.0783031"
         id="feGaussianBlur11969" />
    </filter>
    <linearGradient
       y2="3.9463863"
       x2="31.543701"
       y1="11.3844"
       x1="31.543701"
       gradientTransform="matrix(0.7747776,0,0,0.77843402,-19.891522,1042.0098)"
       gradientUnits="userSpaceOnUse"
       id="linearGradient11768-2"
       xlink:href="#linearGradient5281-7-6"
       inkscape:collect="always" />
    <linearGradient
       id="linearGradient5281-7-6">
      <stop
         style="stop-color:#df9f3f;stop-opacity:1"
         offset="0"
         id="stop5283-0-4" />
      <stop
         id="stop5289-6-5"
         offset="0.5"
         style="stop-color:#ffbf3f;stop-opacity:1" />
      <stop
         style="stop-color:#ffff9f;stop-opacity:1"
         offset="1"
         id="stop5285-8-3" />
    </linearGradient>
    <linearGradient
       y2="3.5787904"
       x2="35.168701"
       y1="11.4469"
       x1="35.168701"
       gradientTransform="matrix(0.7747776,0,0,0.77843402,-19.891522,1042.0098)"
       gradientUnits="userSpaceOnUse"
       id="linearGradient11770-0"
       xlink:href="#linearGradient5291-1"
       inkscape:collect="always" />
    <linearGradient
       inkscape:collect="always"
       id="linearGradient5291-1">
      <stop
         style="stop-color:#543830;stop-opacity:1"
         offset="0"
         id="stop5293-9" />
      <stop
         style="stop-color:#543830;stop-opacity:1"
         offset="1"
         id="stop5295-0" />
    </linearGradient>
    <linearGradient
       y2="3.9463863"
       x2="31.543701"
       y1="11.3844"
       x1="31.543701"
       gradientTransform="matrix(0.7747776,0,0,0.77843402,-12.850033,1034.9928)"
       gradientUnits="userSpaceOnUse"
       id="linearGradient3050"
       xlink:href="#linearGradient5281-7-6"
       inkscape:collect="always" />
    <linearGradient
       y2="3.5787904"
       x2="35.168701"
       y1="11.4469"
       x1="35.168701"
       gradientTransform="matrix(0.7747776,0,0,0.77843402,-12.850033,1034.9928)"
       gradientUnits="userSpaceOnUse"
       id="linearGradient3052"
       xlink:href="#linearGradient5291-1"
       inkscape:collect="always" />
    <linearGradient
       y2="3.9463863"
       x2="31.543701"
       y1="11.3844"
       x1="31.543701"
       gradientTransform="matrix(0.88591929,0,0,0.89010022,-22.890193,1040.6677)"
       gradientUnits="userSpaceOnUse"
       id="linearGradient11768-5"
       xlink:href="#linearGradient5281-7-62"
       inkscape:collect="always" />
    <linearGradient
       id="linearGradient5281-7-62">
      <stop
         style="stop-color:#df9f3f;stop-opacity:1"
         offset="0"
         id="stop5283-0-2" />
      <stop
         id="stop5289-6-7"
         offset="0.5"
         style="stop-color:#ffbf3f;stop-opacity:1" />
      <stop
         style="stop-color:#ffff9f;stop-opacity:1"
         offset="1"
         id="stop5285-8-9" />
    </linearGradient>
    <linearGradient
       y2="3.5787904"
       x2="35.168701"
       y1="11.4469"
       x1="35.168701"
       gradientTransform="matrix(0.88591929,0,0,0.89010022,-22.890193,1040.6677)"
       gradientUnits="userSpaceOnUse"
       id="linearGradient11770-7"
       xlink:href="#linearGradient5291-4"
       inkscape:collect="always" />
    <linearGradient
       inkscape:collect="always"
       id="linearGradient5291-4">
      <stop
         style="stop-color:#543830;stop-opacity:1"
         offset="0"
         id="stop5293-8" />
      <stop
         style="stop-color:#543830;stop-opacity:1"
         offset="1"
         id="stop5295-3" />
    </linearGradient>
    <linearGradient
       y2="4.2773442"
       x2="32.809464"
       y1="10.890033"
       x1="30.075806"
       gradientTransform="matrix(0.81915573,-0.33739722,0.3389895,0.82302158,-17.302588,1045.774)"
       gradientUnits="userSpaceOnUse"
       id="linearGradient3103"
       xlink:href="#linearGradient5281-7-62"
       inkscape:collect="always" />
    <linearGradient
       y2="4.2773442"
       x2="32.809464"
       y1="10.890033"
       x1="30.075806"
       gradientTransform="matrix(0.81915573,-0.33739722,0.3389895,0.82302158,-17.302588,1045.774)"
       gradientUnits="userSpaceOnUse"
       id="linearGradient3105"
       xlink:href="#linearGradient5291-4"
       inkscape:collect="always" />
  </defs>
  <sodipodi:namedview
     id="base"
     pagecolor="#ffffff"
     bordercolor="#666666"
     borderopacity="1.0"
     inkscape:pageopacity="0.0"
     inkscape:pageshadow="2"
     inkscape:zoom="22.627419"
     inkscape:cx="-8.110964"
     inkscape:cy="6.3599979"
     inkscape:document-units="px"
     inkscape:current-layer="layer1"
     showgrid="true"
     inkscape:window-width="1920"
     inkscape:window-height="1033"
     inkscape:window-x="-7"
     inkscape:window-y="-10"
     inkscape:window-maximized="1"
     showguides="true"
     inkscape:guide-bbox="true"
     inkscape:snap-global="false">
    <inkscape:grid
       type="xygrid"
       id="grid3971" />
  </sodipodi:namedview>
  <metadata
     id="metadata7">
    <rdf:RDF>
      <cc:Work
         rdf:about="">
        <dc:format>image/svg+xml</dc:format>
        <dc:type
           rdf:resource="http://purl.org/dc/dcmitype/StillImage" />
        <dc:title></dc:title>
      </cc:Work>
    </rdf:RDF>
  </metadata>
  <g
     inkscape:label="Layer 1"
     inkscape:groupmode="layer"
     id="layer1"
     style="display:inline"
     transform="translate(0,-1036.3622)">
    <path
       style="fill:url(#linearGradient11768);fill-opacity:1;stroke:url(#linearGradient11770);stroke-width:0.44400361;stroke-miterlimit:4;stroke-opacity:1;stroke-dasharray:none;display:inline"
       d="m 4.9885797,1043.6162 c -0.165862,10e-5 -0.3399651,0.035 -0.5813844,0.083 l 0,0.7788 c -0.1891365,0.037 -0.3739592,0.064 -0.5536998,0.139 -0.1722146,0.074 -0.3441344,0.2025 -0.4983293,0.306 l -0.5536998,-0.5565 c -0.4094426,0.2746 -0.5291701,0.3957 -0.8028642,0.8067 l 0.5536994,0.5563 c -0.1072556,0.1608 -0.2300732,0.3479 -0.3045346,0.5285 -0.074284,0.1806 -0.1006648,0.3662 -0.138425,0.5564 l -0.8028643,0 c -0.096283,0.4849 -0.095779,0.6552 0,1.1403 l 0.8028643,0 c 0.074993,0.3801 0.2288986,0.7625 0.4429596,1.0849 l -0.5536994,0.5284 c 0.2736896,0.4112 0.3934207,0.5321 0.8028642,0.8067 l 0.5536998,-0.5285 c 0.3205288,0.2154 0.6738131,0.3692 1.0520291,0.4451 l 0,0.7788 c 0.4828381,0.096 0.6800138,0.097 1.1627688,0 l 0,-0.7788 c 0.3782778,-0.075 0.7313263,-0.2299 1.052029,-0.4451 l 0.5536995,0.5285 c 0.4091446,-0.275 0.5295863,-0.3953 0.8028642,-0.8067 l -0.553699,-0.5284 c 0.2144922,-0.3221 0.3675159,-0.7049 0.4429593,-1.0849 l 0.8028642,0 c 0.095779,-0.4851 0.096284,-0.6554 0,-1.1403 l -0.8028642,0 c -0.075029,-0.3802 -0.2287173,-0.7627 -0.4429593,-1.0849 l 0.553699,-0.5563 c -0.1364903,-0.206 -0.2149368,-0.355 -0.3322191,-0.4728 -0.1173404,-0.1178 -0.2657459,-0.1967 -0.4706451,-0.3339 l -0.5536995,0.5564 c -0.3205335,-0.2156 -0.6737641,-0.3694 -1.052029,-0.4451 l 0,-0.7789 c -0.2413772,-0.048 -0.4155224,-0.083 -0.5813844,-0.083 z m 0,2.9485 c 0.4434096,0 0.8028642,0.3611 0.8028642,0.8067 0,0.4455 -0.3594546,0.8066 -0.8028642,0.8066 -0.4434095,0 -0.8028642,-0.3611 -0.8028642,-0.8066 0,-0.4456 0.3594547,-0.8067 0.8028642,-0.8067 z"
       id="path4059-7-6-6"
       inkscape:connector-curvature="0" />
    <path
       style="fill:url(#linearGradient3103);fill-opacity:1;stroke:url(#linearGradient3105);stroke-width:0.44400000000000001;stroke-miterlimit:4;stroke-opacity:1;stroke-dasharray:none;display:inline"
       d="m 9.5981369,1037.8828 c -0.1533244,0.063 -0.3010154,0.1618 -0.5059603,0.2981 l 0.2966014,0.7202 c -0.1607922,0.1062 -0.3214031,0.2015 -0.4590352,0.3394 -0.1310539,0.134 -0.2410792,0.3183 -0.3442365,0.4727 l -0.7239123,-0.3037 c -0.2740069,0.4098 -0.3385914,0.5674 -0.4351328,1.0517 l 0.7238359,0.3035 c -0.037933,0.1895 -0.080239,0.4093 -0.080308,0.6046 9.45e-5,0.1953 0.046387,0.377 0.083908,0.5672 l -0.7423599,0.3058 c 0.095644,0.485 0.1609681,0.6423 0.4342766,1.0543 l 0.7423599,-0.3057 c 0.2141004,0.3229 0.5020424,0.6178 0.8227557,0.8344 l -0.3107342,0.6995 c 0.4096674,0.2759 0.5664195,0.3421 1.0495868,0.4401 l 0.310696,-0.6995 c 0.378408,0.077 0.763642,0.085 1.142262,0.011 l 0.296601,0.7201 c 0.483012,-0.095 0.66571,-0.1693 1.075142,-0.4429 l -0.296602,-0.7201 c 0.321208,-0.2134 0.588657,-0.4911 0.803234,-0.8122 l 0.713248,0.2778 c 0.273579,-0.4101 0.339129,-0.5672 0.435132,-1.0517 l -0.713209,-0.2777 c 0.07566,-0.3795 0.07136,-0.7917 -0.0036,-1.1718 l 0.742359,-0.3058 c -0.09619,-0.485 -0.160581,-0.6427 -0.434276,-1.0543 l -0.74236,0.3057 c -0.214172,-0.323 -0.501951,-0.6181 -0.822756,-0.8344 l 0.300108,-0.7253 c -0.204658,-0.1385 -0.333938,-0.2464 -0.487245,-0.3106 -0.153361,-0.064 -0.320632,-0.081 -0.562341,-0.1295 l -0.30007,0.7253 c -0.378489,-0.077 -0.763673,-0.085 -1.142261,-0.011 l -0.29664,-0.7202 c -0.241467,0.048 -0.4158188,0.082 -0.5691813,0.1447 z m 1.1229191,2.7263 c 0.409994,-0.1689 0.879883,0.028 1.049588,0.4401 0.169666,0.4119 -0.02518,0.8827 -0.435172,1.0516 -0.409993,0.1689 -0.879882,-0.028 -1.049548,-0.44 -0.169705,-0.4121 0.02514,-0.8828 0.435132,-1.0517 z"
       id="path4059-7-6-6-9"
       inkscape:connector-curvature="0" />
  </g>
</svg>
