<?xml version="1.0" encoding="UTF-8" standalone="no"?>
<!-- Created with Inkscape (http://www.inkscape.org/) -->

<svg
   xmlns:dc="http://purl.org/dc/elements/1.1/"
   xmlns:cc="http://creativecommons.org/ns#"
   xmlns:rdf="http://www.w3.org/1999/02/22-rdf-syntax-ns#"
   xmlns:svg="http://www.w3.org/2000/svg"
   xmlns="http://www.w3.org/2000/svg"
   xmlns:xlink="http://www.w3.org/1999/xlink"
   xmlns:sodipodi="http://sodipodi.sourceforge.net/DTD/sodipodi-0.dtd"
   xmlns:inkscape="http://www.inkscape.org/namespaces/inkscape"
   width="16"
   height="16"
   id="svg2"
   version="1.1"
   inkscape:version="0.48.5 r10040"
   sodipodi:docname="export_error_suite.svg">
  <defs
     id="defs4">
    <linearGradient
       id="linearGradient4921">
      <stop
         style="stop-color:#85a2cd;stop-opacity:1;"
         offset="0"
         id="stop4923" />
      <stop
         style="stop-color:#d3dce9;stop-opacity:1;"
         offset="1"
         id="stop4925" />
    </linearGradient>
    <linearGradient
       id="linearGradient4913">
      <stop
         style="stop-color:#4e6b9b;stop-opacity:1"
         offset="0"
         id="stop4915" />
      <stop
         style="stop-color:#6783b1;stop-opacity:1"
         offset="1"
         id="stop4917" />
    </linearGradient>
    <linearGradient
       inkscape:collect="always"
       xlink:href="#linearGradient4913"
       id="linearGradient4919"
       x1="1.860189"
       y1="1051.5892"
       x2="1.860189"
       y2="1046.8492"
       gradientUnits="userSpaceOnUse"
       gradientTransform="matrix(1.0234842,0,0,1.0234842,-16.469311,-24.240831)" />
    <linearGradient
       inkscape:collect="always"
       xlink:href="#linearGradient4921"
       id="linearGradient4927"
       x1="1.860189"
       y1="1051.5892"
       x2="1.860189"
       y2="1046.8492"
       gradientUnits="userSpaceOnUse"
       gradientTransform="matrix(1.0234842,0,0,1.0234842,-16.469311,-24.240831)" />
    <linearGradient
       id="linearGradient4789">
      <stop
         style="stop-color:#4e8fbd;stop-opacity:1;"
         offset="0"
         id="stop4791" />
      <stop
         style="stop-color:#30495a;stop-opacity:1;"
         offset="1"
         id="stop4793" />
    </linearGradient>
    <linearGradient
       y2="1049.5981"
       x2="-2.2873085"
       y1="1044.6919"
       x1="-2.2873085"
       gradientTransform="matrix(-0.72371262,0.72371262,-0.72371262,-0.72371262,759.2188,1798.992)"
       gradientUnits="userSpaceOnUse"
       id="linearGradient3924"
       xlink:href="#linearGradient4789"
       inkscape:collect="always" />
  </defs>
  <sodipodi:namedview
     id="base"
     pagecolor="#ffffff"
     bordercolor="#666666"
     borderopacity="1.0"
     inkscape:pageopacity="0.0"
     inkscape:pageshadow="2"
     inkscape:zoom="16"
     inkscape:cx="19.216354"
     inkscape:cy="10.305632"
     inkscape:document-units="px"
     inkscape:current-layer="layer1"
     showgrid="true"
     inkscape:window-width="1652"
     inkscape:window-height="1016"
     inkscape:window-x="254"
     inkscape:window-y="0"
     inkscape:window-maximized="0"
     showguides="true"
     inkscape:guide-bbox="true"
     inkscape:snap-global="false">
    <inkscape:grid
       type="xygrid"
       id="grid4039" />
  </sodipodi:namedview>
  <metadata
     id="metadata7">
    <rdf:RDF>
      <cc:Work
         rdf:about="">
        <dc:format>image/svg+xml</dc:format>
        <dc:type
           rdf:resource="http://purl.org/dc/dcmitype/StillImage" />
        <dc:title />
      </cc:Work>
    </rdf:RDF>
  </metadata>
  <g
     inkscape:label="Layer 1"
     inkscape:groupmode="layer"
     id="layer1"
     style="display:inline"
     transform="translate(0,-1036.3622)">
    <path
       style="fill:url(#linearGradient3924);fill-opacity:1;stroke:none;display:inline"
       d="m 9.5972281,1045.2919 -0.655669,0.6556 -6.2848657,-6.2848 -1.311339,1.3113 -0.335794,-3.5021 3.5021957,0.3037 -1.2313787,1.2315 z"
       id="path3986"
       inkscape:connector-curvature="0" />
    <g
       id="g4908"
       transform="translate(17.6875,0)">
      <path
         style="fill:url(#linearGradient4927);fill-opacity:1;stroke:url(#linearGradient4919);stroke-width:0.71643895;stroke-linecap:butt;stroke-linejoin:miter;stroke-miterlimit:4;stroke-opacity:1;stroke-dasharray:none"
         d="m -16.373359,1044.8393 0,7.1004 7.1324055,0 7.1324058,0 0,-7.1004 -3.0064848,0 0,2.015 0.9275325,0 0,3.0704 -5.0534535,0 -5.0534535,0 0,-3.0704 0.927532,0 0,-2.015 z"
         id="path4143"
         inkscape:connector-curvature="0"
         sodipodi:nodetypes="ccccccccccccccc" />
      <rect
         style="fill:#d8424f;fill-opacity:1;stroke:none;display:inline"
         id="rect4244"
         width="7"
         height="8"
         x="-12.75"
         y="1040.4247" />
      <path
         inkscape:connector-curvature="0"
         style="font-size:7.68999243px;font-style:normal;font-variant:normal;font-weight:normal;font-stretch:normal;text-indent:0;text-align:start;text-decoration:none;line-height:125%;letter-spacing:0px;word-spacing:0px;text-transform:none;direction:ltr;block-progression:tb;writing-mode:lr-tb;text-anchor:start;baseline-shift:baseline;color:#000000;fill:#ffffff;fill-opacity:1;fill-rule:nonzero;stroke:none;stroke-width:0.27519909;marker:none;visibility:visible;display:inline;overflow:visible;enable-background:accumulate;font-family:Sans;-inkscape-font-specification:Sans"
         d="m -11.5,1042.2061 0,0.125 0,0.5 0,0.125 0.125,0 0.375,0 1.1875,1.4063 -1.21875,1.5312 -0.34375,0 -0.125,0 0,0.125 0,0.5 0,0.125 0.125,0 1.5,0 0.125,0 0,-0.125 0,-0.5 0,-0.125 -0.125,0 0.625,-0.8437 0.625,0.8437 -0.125,0 0,0.125 0,0.5 0,0.125 0.125,0 1.5,0 0.125,0 0,-0.125 0,-0.5 0,-0.125 -0.125,0 -0.3125,0 -1.25,-1.5625 1.15625,-1.375 0.40625,0 0.125,0 0,-0.125 0,-0.5 0,-0.125 -0.125,0 -1.5,0 -0.125,0 0,0.125 0,0.5 0,0.125 0.0625,0 -0.5625,0.7188 -0.5625,-0.7188 0.0625,0 0,-0.125 0,-0.5 0,-0.125 -0.124998,0 -1.5,0 -0.125,0 z"
         id="path4187" />
    </g>
  </g>
</svg>
