<?xml version="1.0" encoding="UTF-8" standalone="no"?>
<!-- Created with Inkscape (http://www.inkscape.org/) -->

<svg
   xmlns:dc="http://purl.org/dc/elements/1.1/"
   xmlns:cc="http://creativecommons.org/ns#"
   xmlns:rdf="http://www.w3.org/1999/02/22-rdf-syntax-ns#"
   xmlns:svg="http://www.w3.org/2000/svg"
   xmlns="http://www.w3.org/2000/svg"
   xmlns:xlink="http://www.w3.org/1999/xlink"
   xmlns:sodipodi="http://sodipodi.sourceforge.net/DTD/sodipodi-0.dtd"
   xmlns:inkscape="http://www.inkscape.org/namespaces/inkscape"
   version="1.1"
   id="Layer_1"
   x="0px"
   y="0px"
   width="1024"
   height="1024"
   viewBox="0 0 1024 1024"
   enable-background="new 0 0 612 792"
   xml:space="preserve"
   inkscape:version="0.48.5 r10040"
   sodipodi:docname="ease.svg"
   inkscape:export-filename="/home/christian/download/ease128.png"
   inkscape:export-xdpi="11.25"
   inkscape:export-ydpi="11.25"><metadata
     id="metadata68"><rdf:RDF><cc:Work
         rdf:about=""><dc:format>image/svg+xml</dc:format><dc:type
           rdf:resource="http://purl.org/dc/dcmitype/StillImage" /><dc:title></dc:title></cc:Work></rdf:RDF></metadata><defs
     id="defs66"><linearGradient
       id="linearGradient3857"
       gradientUnits="userSpaceOnUse"
       x1="131.3853"
       y1="358.57709"
       x2="131.3853"
       y2="432.2084"
       gradientTransform="matrix(1,0,0,-1,0,793)"><stop
         offset="0.30179274"
         style="stop-color:#473788"
         id="stop3859" /><stop
         offset="0.79185295"
         style="stop-color:#2C2255"
         id="stop3861" /></linearGradient><linearGradient
       inkscape:collect="always"
       xlink:href="#linearGradient3857"
       id="linearGradient3867"
       gradientUnits="userSpaceOnUse"
       x1="59.992634"
       y1="83.283737"
       x2="103.99626"
       y2="83.283737" /><linearGradient
       id="linearGradient3905"><stop
         style="stop-color:#bebb88;stop-opacity:1;"
         offset="0"
         id="stop3907" /><stop
         style="stop-color:#8592b0;stop-opacity:1;"
         offset="1"
         id="stop3909" /></linearGradient><linearGradient
       id="linearGradient14431"><stop
         style="stop-color:#bebb88;stop-opacity:1;"
         offset="0"
         id="stop14433" /><stop
         style="stop-color:#8592b0;stop-opacity:1;"
         offset="1"
         id="stop14435" /></linearGradient><linearGradient
       inkscape:collect="always"
       xlink:href="#linearGradient3897"
       id="linearGradient3215"
       gradientUnits="userSpaceOnUse"
       gradientTransform="matrix(0.93274396,0,0,0.9743922,-18.398165,26.747826)"
       x1="29.620422"
       y1="1038.0339"
       x2="29.864937"
       y2="1050.5851" /><linearGradient
       id="linearGradient3897"><stop
         style="stop-color:#f7f9fc;stop-opacity:1;"
         offset="0"
         id="stop3899" /><stop
         style="stop-color:#dee8f7;stop-opacity:1;"
         offset="1"
         id="stop3901" /></linearGradient><linearGradient
       inkscape:collect="always"
       xlink:href="#linearGradient3905"
       id="linearGradient3217"
       gradientUnits="userSpaceOnUse"
       gradientTransform="matrix(0.93274396,0,0,0.9743922,-18.398165,26.747826)"
       x1="29.620422"
       y1="1038.0339"
       x2="29.864937"
       y2="1050.5851" /><linearGradient
       id="linearGradient14442"><stop
         style="stop-color:#bebb88;stop-opacity:1;"
         offset="0"
         id="stop14444" /><stop
         style="stop-color:#8592b0;stop-opacity:1;"
         offset="1"
         id="stop14446" /></linearGradient></defs><sodipodi:namedview
     pagecolor="#ffffff"
     bordercolor="#666666"
     borderopacity="1"
     objecttolerance="10"
     gridtolerance="10"
     guidetolerance="10"
     inkscape:pageopacity="0"
     inkscape:pageshadow="2"
     inkscape:window-width="1920"
     inkscape:window-height="1033"
     id="namedview64"
     showgrid="false"
     fit-margin-top="0"
     fit-margin-left="0"
     fit-margin-right="0"
     fit-margin-bottom="0"
     inkscape:zoom="0.70710678"
     inkscape:cx="601.84859"
     inkscape:cy="438.23315"
     inkscape:window-x="-7"
     inkscape:window-y="-10"
     inkscape:window-maximized="1"
     inkscape:current-layer="Layer_1"
     showguides="false"
     inkscape:guide-bbox="true"
     inkscape:snap-global="false"><sodipodi:guide
       orientation="1,0"
       position="564,-16"
       id="guide3764" /><inkscape:grid
       type="xygrid"
       id="grid3770"
       empspacing="5"
       visible="true"
       enabled="true"
       snapvisiblegridlinesonly="true"
       spacingx="128px"
       spacingy="128px" /></sodipodi:namedview><path
     transform="matrix(9.2443236,0,0,9.2443236,-91.099239,-79.891299)"
     d="m 119.55508,64.027542 a 48.661018,48.661018 0 1 1 -97.322033,0 48.661018,48.661018 0 1 1 97.322033,0 z"
     sodipodi:ry="48.661018"
     sodipodi:rx="48.661018"
     sodipodi:cy="64.027542"
     sodipodi:cx="70.894066"
     id="path3924"
     style="fill:#2c2255;fill-opacity:1"
     sodipodi:type="arc" /><g
     id="g13"
     transform="matrix(9.1849384,0,0,9.1849384,-642.88022,-2967.521)"><path
       d="m 79.6,378.829 c 0,-25.824 19.395,-47.281 44.626,-51.055 -0.626,-0.023 -1.255,-0.048 -1.887,-0.048 -28.314,0 -51.269,22.88 -51.269,51.103 0,28.224 22.954,51.103 51.269,51.103 0.634,0 1.263,-0.024 1.891,-0.047 C 98.995,426.111 79.6,404.654 79.6,378.829 z"
       id="path15"
       inkscape:connector-curvature="0"
       style="fill:#f7941e" /></g><path
     sodipodi:type="arc"
     style="fill:url(#linearGradient3867);fill-opacity:1"
     id="path3839"
     sodipodi:cx="93.362816"
     sodipodi:cy="83.283737"
     sodipodi:rx="20.096365"
     sodipodi:ry="20.096365"
     d="m 113.45918,83.283737 a 20.096365,20.096365 0 1 1 -40.192729,0 20.096365,20.096365 0 1 1 40.192729,0 z"
     transform="matrix(0,-15.40426,15.40426,0,-718.65592,1950.1852)" /><g
     id="g15580"
     transform="translate(5.1282065,5.0192119)"><path
       id="path4992-5"
       d="m 721.21875,324.09375 c -5.59807,0.21269 -11.19006,3.82501 -15.28125,11.40625 l 21.8125,0 c -1.71254,15.48376 -3.47811,30.94561 -5.28125,46.40625 l 13.8125,0.25 c 14.26389,-35.64127 -0.30254,-58.62328 -15.0625,-58.0625 z"
       style="fill:#ffffff;fill-opacity:1;stroke:#f0f0f0;stroke-width:0;stroke-linecap:round;stroke-linejoin:round;stroke-miterlimit:4;stroke-opacity:1;stroke-dasharray:none;display:inline"
       inkscape:connector-curvature="0" /><path
       id="path4990-5"
       d="m 503.75,324 c -9.81008,0.32962 -21.73336,10.35563 -23.8125,32.96875 l -31.34375,235 143,0 a 14.249551,22.969168 0 0 1 14.1875,20.84375 c 1.8601,32.35219 10.23548,53.29643 19.65625,64.6875 l -34.28125,0 c 8.45797,7.99026 18.47623,12.24502 28,12.4375 23.78502,0.2816 45.08002,-17.75133 47.6875,-58.78125 10.50935,-91.41132 22.51609,-182.63484 32.46875,-274.125 l 0,-0.0625 c 2.08656,-22.70147 14.77167,-32.7373 22.09375,-32.90625 l -215.71875,0 C 505.05595,323.9991 504.40401,323.978 503.75,324 z m 67.90625,313.875 c 2.4024,15.1688 8.30545,27.20107 15.90625,35.875 -3.48438,-10.76419 -6.24462,-22.75889 -8.0625,-35.875 l -7.84375,0 z"
       style="fill:#ffffff;fill-opacity:1;stroke:#f0f0f0;stroke-width:0;stroke-linecap:round;stroke-linejoin:round;stroke-miterlimit:4;stroke-opacity:1;stroke-dasharray:none;display:inline"
       inkscape:connector-curvature="0" /><path
       id="path4992-5-0"
       d="m 721.53125,310.375 c -7.05335,0.14876 -14.15927,2.72397 -19.5625,7.59375 -9.14706,8.24398 -14.13919,20.89885 -15.71875,37.40625 -0.0129,0.1344 -0.0501,0.27134 -0.0625,0.40625 l -2.875,23.96875 a 14.018164,14.018164 0 0 0 9.375,14.9375 c 2.32811,-19.73219 4.6211,-39.45412 6.8125,-59.1875 l 28.25,0 c -0.37826,3.42003 -0.77292,6.83119 -1.15625,10.25 1.50712,4.91054 2.21569,12.26074 -0.34375,22.21875 l -2.15625,-0.0312 c -1.0714,9.31258 -2.18321,18.63244 -3.28125,27.9375 l 15.21875,0.28125 a 14.018164,14.018164 0 0 0 13.25,-8.8125 c 13.34109,-33.33545 6.94421,-62.42436 -13.5625,-73.65625 -3.845,-2.10598 -8.27875,-3.20228 -12.78125,-3.3125 -0.46901,-0.0115 -0.93603,-0.01 -1.40625,0 z"
       style="font-size:medium;font-style:normal;font-variant:normal;font-weight:normal;font-stretch:normal;text-indent:0;text-align:start;text-decoration:none;line-height:normal;letter-spacing:normal;word-spacing:normal;text-transform:none;direction:ltr;block-progression:tb;writing-mode:lr-tb;text-anchor:start;baseline-shift:baseline;color:#000000;fill:#f0f0f0;fill-opacity:1;fill-rule:nonzero;stroke:none;stroke-width:37.84519958;marker:none;visibility:visible;display:inline;overflow:visible;enable-background:accumulate;font-family:Sans;-inkscape-font-specification:Sans"
       inkscape:connector-curvature="0" /><path
       id="path4990-5-6"
       d="m 503.3125,309.96875 c -18.56601,0.48068 -34.61047,18.37546 -37.28125,45.15625 -0.0195,0.19605 -0.0444,0.36548 -0.0625,0.5625 l -31.53125,236.28125 28.3125,0 31.09375,-233.15625 a 14.018091,14.018091 0 0 0 0.0312,-0.5625 c 1.77693,-19.32616 10.45611,-20.245 10.40625,-20.25 a 14.018091,14.018091 0 0 0 1.40625,0.0625 l 183.59375,0 c -1.91565,5.18489 -3.29923,10.99537 -3.90625,17.46875 -0.005,0.0488 -0.0268,0.0761 -0.0312,0.125 a 14.018091,14.018091 0 0 0 0,0.0937 c -9.92509,91.20393 -21.88827,182.3262 -32.40625,273.8125 a 14.018091,14.018091 0 0 0 -0.0937,0.71875 c -1.15884,18.23424 -6.31223,29.72587 -12.3125,36.40625 -4.83588,5.38401 -10.26786,8.14866 -16.53125,8.96875 0.4767,0.63439 0.95457,1.25982 1.4375,1.84375 l -36.625,0 c -4.07955,-11.69508 -7.28176,-24.97305 -9.3125,-39.625 l -148.375,0 a 14.018091,14.018091 0 0 0 12.15625,7.25 L 559,645.84375 c 7.77877,35.27627 32.98328,57.55024 59.875,58.09375 a 14.018091,14.018091 0 0 0 0.125,0 c 15.48245,0.1833 31.12938,-6.01097 42.375,-18.53125 11.12454,-12.38547 17.85995,-30.17611 19.40625,-52.625 0.003,-0.0228 -0.003,-0.071 0,-0.0937 10.48999,-91.23625 22.49581,-182.4487 32.46875,-274.125 a 14.018091,14.018091 0 0 0 0.0312,-0.3125 c 0.82367,-8.96149 3.59797,-14.40947 6,-17.375 2.40202,-2.96554 4.98146,-2.8712 2.4375,-2.8125 a 14.018091,14.018091 0 0 0 -0.3125,-28.03125 l -0.34375,0 -215.375,0 0,0.0312 c -0.78837,-0.0418 -1.59472,-0.11394 -2.375,-0.0937 z"
       style="font-size:medium;font-style:normal;font-variant:normal;font-weight:normal;font-stretch:normal;text-indent:0;text-align:start;text-decoration:none;line-height:normal;letter-spacing:normal;word-spacing:normal;text-transform:none;direction:ltr;block-progression:tb;writing-mode:lr-tb;text-anchor:start;baseline-shift:baseline;color:#000000;fill:#f0f0f0;fill-opacity:1;fill-rule:nonzero;stroke:none;stroke-width:37.84500122;marker:none;visibility:visible;display:inline;overflow:visible;enable-background:accumulate;font-family:Sans;-inkscape-font-specification:Sans"
       inkscape:connector-curvature="0" /><path
       sodipodi:nodetypes="ccccc"
       inkscape:connector-curvature="0"
       d="m 422.13389,689.96295 c -23.22439,0.70399 -42.59723,-20.90214 -46.11565,-58.86276 l 194.84803,0 c 3.44323,37.15248 27.44479,57.88004 49.51916,58.65158 z"
       style="fill:#ffffff;fill-opacity:1;fill-rule:nonzero;stroke:#f0f0f0;stroke-width:28.0333786;stroke-linecap:butt;stroke-linejoin:round;stroke-miterlimit:4;stroke-opacity:1;stroke-dasharray:none;display:inline"
       id="path4988-4" /></g></svg>