<?xml version="1.0" encoding="UTF-8" standalone="no"?>
<!-- Created with Inkscape (http://www.inkscape.org/) -->

<svg
   xmlns:dc="http://purl.org/dc/elements/1.1/"
   xmlns:cc="http://creativecommons.org/ns#"
   xmlns:rdf="http://www.w3.org/1999/02/22-rdf-syntax-ns#"
   xmlns:svg="http://www.w3.org/2000/svg"
   xmlns="http://www.w3.org/2000/svg"
   xmlns:sodipodi="http://sodipodi.sourceforge.net/DTD/sodipodi-0.dtd"
   xmlns:inkscape="http://www.inkscape.org/namespaces/inkscape"
   width="7"
   height="8"
   id="svg2"
   version="1.1"
   inkscape:version="0.48.5 r10040"
   sodipodi:docname="status_error.svg">
  <defs
     id="defs4" />
  <sodipodi:namedview
     id="base"
     pagecolor="#ffffff"
     bordercolor="#666666"
     borderopacity="1.0"
     inkscape:pageopacity="0.0"
     inkscape:pageshadow="2"
     inkscape:zoom="22.4"
     inkscape:cx="3.985293"
     inkscape:cy="4.2289524"
     inkscape:document-units="px"
     inkscape:current-layer="layer1"
     showgrid="true"
     inkscape:window-width="1920"
     inkscape:window-height="1033"
     inkscape:window-x="-7"
     inkscape:window-y="-10"
     inkscape:window-maximized="1"
     inkscape:snap-global="false">
    <inkscape:grid
       type="xygrid"
       id="grid2985"
       empspacing="5"
       visible="true"
       enabled="true"
       snapvisiblegridlinesonly="true" />
  </sodipodi:namedview>
  <metadata
     id="metadata7">
    <rdf:RDF>
      <cc:Work
         rdf:about="">
        <dc:format>image/svg+xml</dc:format>
        <dc:type
           rdf:resource="http://purl.org/dc/dcmitype/StillImage" />
        <dc:title></dc:title>
      </cc:Work>
    </rdf:RDF>
  </metadata>
  <g
     inkscape:label="Layer 1"
     inkscape:groupmode="layer"
     id="layer1"
     transform="translate(0,-1044.3622)">
    <path
       inkscape:connector-curvature="0"
       style="font-size:7.68999243px;font-style:normal;font-variant:normal;font-weight:normal;font-stretch:normal;text-indent:0;text-align:start;text-decoration:none;line-height:125%;letter-spacing:0px;word-spacing:0px;text-transform:none;direction:ltr;block-progression:tb;writing-mode:lr-tb;text-anchor:start;baseline-shift:baseline;color:#000000;fill:#ffffff;fill-opacity:1;fill-rule:nonzero;stroke:none;stroke-width:0.27519909;marker:none;visibility:visible;display:inline;overflow:visible;enable-background:accumulate;font-family:Sans;-inkscape-font-specification:Sans"
       d="m 1.2026491,1046.254 0,0.125 0,0.5 0,0.125 0.125,0 0.375,0 1.1875,1.4063 -1.21875,1.5312 -0.34375,0 -0.125,0 0,0.125 0,0.5 0,0.125 0.125,0 1.5,0 0.125,0 0,-0.125 0,-0.5 0,-0.125 -0.125,0 0.625,-0.8437 0.625,0.8437 -0.125,0 0,0.125 0,0.5 0,0.125 0.125,0 1.5,0 0.125,0 0,-0.125 0,-0.5 0,-0.125 -0.125,0 -0.3125,0 -1.25,-1.5625 1.15625,-1.375 0.40625,0 0.125,0 0,-0.125 0,-0.5 0,-0.125 -0.125,0 -1.5,0 -0.125,0 0,0.125 0,0.5 0,0.125 0.0625,0 -0.5625,0.7188 -0.5625,-0.7188 0.0625,0 0,-0.125 0,-0.5 0,-0.125 -0.125,0 -1.5,0 -0.125,0 z"
       id="path4187" />
    <rect
       style="fill:#b30a16;fill-opacity:1;stroke:none;display:inline"
       id="rect4244-4"
       width="7"
       height="8"
       x="0.0058798622"
       y="1044.3726" />
    <rect
       style="fill:#ffffff;fill-opacity:1;fill-rule:nonzero;stroke:#ffffff;stroke-width:0.14764367;stroke-miterlimit:4;stroke-opacity:1;stroke-dasharray:none;display:inline"
       id="rect3253"
       width="4.8854027"
       height="1.8423175"
       x="1.066336"
       y="1047.4735" />
  </g>
</svg>
